<?xml version="1.0" standalone="no"?><!DOCTYPE svg PUBLIC "-//W3C//DTD SVG 1.1//EN" "http://www.w3.org/Graphics/SVG/1.1/DTD/svg11.dtd"><svg t="1594878826956" class="icon" viewBox="0 0 1024 1024" version="1.1" xmlns="http://www.w3.org/2000/svg" p-id="803" xmlns:xlink="http://www.w3.org/1999/xlink" width="128" height="128"><defs><style type="text/css"></style></defs><path d="M470.8 696.7c0-111.1 90-201.1 201.1-201.1 50.8 0 97.2 18.9 132.6 50V302.1c0-66-54-120-120-120h-380c-66 0-120 54-120 120v430c0 66 54 120 120 120h239.7c-44.8-36.9-73.4-92.8-73.4-155.4zM349.5 304.6h290c16.5 0 30 13.5 30 30s-13.5 30-30 30h-290c-16.5 0-30-13.5-30-30s13.5-30 30-30z m-30 159c0-16.5 13.5-30 30-30h170c16.5 0 30 13.5 30 30s-13.5 30-30 30h-170c-16.5 0-30-13.5-30-30z" p-id="804"></path><path d="M671.9 517.8c98.8 0 178.9 80.1 178.9 178.9 0 98.8-80.1 178.9-178.9 178.9-98.8 0-178.9-80.1-178.9-178.9-0.1-98.8 80-178.9 178.9-178.9zM657.2 600c-15.1 0-27.9 11.3-29.6 26.3l-0.2 3.5v89.5c0 9 4 17.1 10.3 22.5 1.7 1.6 3.6 3 5.5 4.2l76.7 46.1c9.1 5.7 20.6 6 30.1 0.9 9.5-5.2 15.4-15 15.5-25.8 0.1-10.8-5.6-20.8-14.9-26.2L687 702.7v-72.9c0-16.5-13.3-29.8-29.8-29.8z m0 0" p-id="805"></path></svg>